<svg width="101" height="101" viewBox="0 0 101 101" fill="none" xmlns="http://www.w3.org/2000/svg">
<g id="figma">
<path id="Vector" d="M33.928 100.321C43.128 100.321 50.5947 92.8539 50.5947 83.6539V66.9873H33.928C24.728 66.9873 17.2614 74.454 17.2614 83.6539C17.2614 92.8539 24.728 100.321 33.928 100.321Z" fill="#00084D"/>
<path id="Vector_2" d="M17.2614 50.32C17.2614 41.12 24.728 33.6533 33.928 33.6533H50.5947V66.9866H33.928C24.728 66.9866 17.2614 59.5199 17.2614 50.32Z" fill="#00084D"/>
<path id="Vector_3" d="M17.2614 16.987C17.2614 7.78698 24.728 0.320312 33.928 0.320312H50.5947V33.6536H33.928C24.728 33.6536 17.2614 26.187 17.2614 16.987Z" fill="#00084D"/>
<path id="Vector_4" d="M50.5947 0.320312H67.2614C76.4614 0.320312 83.9281 7.78698 83.9281 16.987C83.9281 26.187 76.4614 33.6536 67.2614 33.6536H50.5947V0.320312Z" fill="#00084D"/>
<path id="Vector_5" d="M83.9281 50.32C83.9281 59.5199 76.4614 66.9866 67.2614 66.9866C58.0614 66.9866 50.5947 59.5199 50.5947 50.32C50.5947 41.12 58.0614 33.6533 67.2614 33.6533C76.4614 33.6533 83.9281 41.12 83.9281 50.32Z" fill="#00084D"/>
</g>
</svg>
