<svg width="101" height="101" viewBox="0 0 101 101" fill="none" xmlns="http://www.w3.org/2000/svg">
<g id="postman">
<path id="Vector" d="M90.1674 19.7597C84.1228 11.9324 75.8927 6.07344 66.5181 2.92381C57.1434 -0.22583 47.0453 -0.524646 37.5008 2.06515C27.9563 4.65495 19.3942 10.017 12.8973 17.4732C6.40048 24.9294 2.2607 34.1448 1.00155 43.954C-0.25759 53.7631 1.42047 63.7253 5.82351 72.5807C10.2265 81.436 17.1568 88.7868 25.7377 93.7032C34.3187 98.6197 44.1649 100.881 54.0311 100.201C63.8973 99.5214 73.3403 95.931 81.1659 89.8842C103.009 73.0031 107.041 41.6111 90.1658 19.7597H90.1674Z" fill="#00084D"/>
<path id="Vector_2" d="M67.458 32.1785L46.3755 53.4284L40.4177 47.3034C61.1674 26.5536 63.2502 28.4285 67.4595 32.1785H67.458Z" fill="white"/>
<path id="Vector_3" d="M46.3756 54.0093C46.1888 54.0047 46.0106 53.9306 45.8756 53.8015L39.8756 47.8015C39.7405 47.6617 39.665 47.4749 39.665 47.2805C39.665 47.086 39.7405 46.8992 39.8756 46.7594C60.3333 26.3017 63.1254 27.2595 67.9582 31.6345C68.0391 31.6993 68.1038 31.782 68.1472 31.8761C68.1906 31.9702 68.2115 32.0731 68.2082 32.1767C68.2394 32.3798 68.1613 32.5876 68.0004 32.7189L46.9178 53.8031C46.7699 53.9386 46.5761 54.0129 46.3756 54.0109V54.0093ZM41.4584 47.3016L46.3756 52.2187L66.3754 32.2189C65.6849 31.3535 64.6995 30.773 63.6079 30.5885C62.5162 30.404 61.3948 30.6285 60.4583 31.2189C56.8333 32.8439 51.0005 37.8016 41.4584 47.3016Z" fill="#00084D"/>
<path id="Vector_4" d="M52.4176 59.3032L46.6676 53.4283L67.7503 32.5942C73.4175 38.1363 65.0003 47.3862 52.4176 59.3017V59.3032Z" fill="white"/>
<path id="Vector_5" d="M52.4177 60.053C52.2333 60.0383 52.0582 59.9656 51.9177 59.8452L46.0428 54.0953C45.9547 53.8816 45.9547 53.6417 46.0428 53.4281C45.9803 53.2527 45.9803 53.0612 46.0428 52.8859L67.1254 31.8033C67.272 31.6656 67.4656 31.5889 67.6668 31.5889C67.868 31.5889 68.0616 31.6656 68.2082 31.8033C68.891 32.4317 69.4304 33.1998 69.7898 34.0553C70.1492 34.9108 70.3201 35.8336 70.291 36.7611C70.291 42.386 63.8739 49.4687 52.9583 59.803C52.8125 59.9473 52.6206 60.0358 52.4162 60.053H52.4177ZM47.7506 53.4281L52.4583 58.1343C60.7911 50.2594 68.7504 42.1345 68.791 36.6345C68.8364 35.4686 68.4509 34.3267 67.7082 33.4267L47.7506 53.4281Z" fill="#00084D"/>
<path id="Vector_6" d="M40.5834 47.4285L44.7505 51.5957C44.7771 51.6191 44.7985 51.648 44.813 51.6803C44.8276 51.7126 44.8352 51.7477 44.8352 51.7832C44.8352 51.8186 44.8276 51.8537 44.813 51.886C44.7985 51.9183 44.7771 51.9472 44.7505 51.9707L35.9584 53.8456C35.781 53.8839 35.5958 53.8632 35.4312 53.7866C35.2666 53.7099 35.1316 53.5816 35.0467 53.4211C34.9617 53.2606 34.9316 53.0768 34.9608 52.8976C34.99 52.7184 35.077 52.5537 35.2085 52.4285L40.3334 47.3457C40.3334 47.3457 40.5006 47.3457 40.5834 47.4285Z" fill="white"/>
<path id="Vector_7" d="M35.7506 54.6784C35.4728 54.6749 35.2005 54.6002 34.9598 54.4615C34.7191 54.3228 34.518 54.1247 34.3756 53.8862C34.2154 53.584 34.1573 53.2381 34.2099 52.9001C34.2626 52.5622 34.4232 52.2503 34.6678 52.0112L39.7505 46.8862C39.9338 46.7224 40.1711 46.6318 40.4169 46.6318C40.6628 46.6318 40.9 46.7224 41.0833 46.8862L45.2505 51.0534C45.4973 51.2878 45.5942 51.6425 45.5005 51.9706C45.4067 52.2987 45.1317 52.5596 44.7927 52.6378L36.0006 54.5127L35.7506 54.6784ZM40.4177 48.3456L35.71 53.0534L43.502 51.3862L40.4177 48.3456Z" fill="#00084D"/>
<path id="Vector_8" d="M78.6676 20.4693C75.6519 17.56 70.9144 17.4381 67.7519 20.1834C64.5894 22.9287 64.0487 27.6411 66.5113 31.0317C68.9738 34.4223 73.616 35.3723 77.2098 33.2192L71.5425 27.5521L78.6676 20.4693Z" fill="white"/>
<path id="Vector_9" d="M73.0426 35.1345C71.31 35.1123 69.6223 34.5808 68.1897 33.6061C66.7572 32.6314 65.6431 31.2567 64.9863 29.6533C64.33 28.0511 64.1579 26.2917 64.4911 24.5927C64.8244 22.8936 65.6484 21.3296 66.8613 20.094C68.5295 18.4565 70.7737 17.5391 73.1113 17.5391C75.4489 17.5391 77.6932 18.4565 79.3613 20.094C79.5207 20.2284 79.6113 20.4268 79.6113 20.6362C79.611 20.7392 79.5884 20.8409 79.5453 20.9345C79.5022 21.028 79.4394 21.1112 79.3613 21.1784L72.6113 27.5533L77.7363 32.5955C77.8194 32.6748 77.8817 32.7732 77.9179 32.8822C77.9542 32.9911 77.9632 33.1073 77.9442 33.2205C77.9318 33.3297 77.8956 33.4349 77.8381 33.5286C77.7806 33.6223 77.7032 33.7022 77.6113 33.7627C76.2345 34.6233 74.6517 35.0982 73.0285 35.1377L73.0426 35.1345ZM73.0426 18.9675C70.0738 18.9831 67.4176 20.769 66.3035 23.4987C65.1895 26.2284 65.7957 29.3705 67.877 31.4674C68.9122 32.5086 70.2377 33.2129 71.6799 33.4881C73.1222 33.7633 74.6139 33.5965 75.9598 33.0096L71.0426 28.0924C70.9644 28.0299 70.9013 27.9506 70.8579 27.8604C70.8146 27.7702 70.7921 27.6714 70.7921 27.5713C70.7921 27.4712 70.8146 27.3724 70.8579 27.2822C70.9013 27.192 70.9644 27.1127 71.0426 27.0502L77.5426 20.5081C76.2505 19.5178 74.6705 18.9764 73.0426 18.9659V18.9675Z" fill="#00084D"/>
<path id="Vector_10" d="M78.7923 20.5942L71.6675 27.677L77.3345 33.3441C77.9049 33.0166 78.436 32.625 78.9173 32.1769C80.4026 30.607 81.2198 28.5214 81.1965 26.3603C81.1732 24.1992 80.3111 22.1318 78.7923 20.5942Z" fill="white"/>
<path id="Vector_11" d="M77.2081 33.9691C77.1145 33.9742 77.021 33.9581 76.9344 33.9222C76.8479 33.8862 76.7705 33.8312 76.7081 33.7613L71.0409 28.0942C70.9628 28.0317 70.8997 27.9524 70.8563 27.8622C70.8129 27.772 70.7904 27.6732 70.7904 27.5731C70.7904 27.473 70.8129 27.3742 70.8563 27.284C70.8997 27.1938 70.9628 27.1145 71.0409 27.052L78.1237 20.0942C78.1921 19.9911 78.285 19.9065 78.394 19.8479C78.5031 19.7894 78.6249 19.7588 78.7487 19.7588C78.8724 19.7588 78.9943 19.7894 79.1033 19.8479C79.2124 19.9065 79.3053 19.9911 79.3737 20.0942C80.2052 20.9089 80.8657 21.8813 81.3167 22.9545C81.7677 24.0277 81.9999 25.1801 81.9999 26.3442C81.9999 27.5083 81.7677 28.6606 81.3167 29.7338C80.8657 30.807 80.2052 31.7794 79.3737 32.5941C78.8832 33.1144 78.322 33.563 77.7065 33.9269C77.5515 34.005 77.3724 34.0202 77.2065 33.9691H77.2081ZM72.6253 27.5535L77.3331 32.2613C77.6569 32.0343 77.9635 31.7837 78.2503 31.5113C79.6342 30.1312 80.4137 28.2581 80.4174 26.3035C80.4206 24.5544 79.7831 22.8647 78.6252 21.5536L72.6253 27.5535Z" fill="#00084D"/>
<path id="Vector_12" d="M68.3332 33.0535C67.7688 32.5235 67.0238 32.2285 66.2496 32.2285C65.4754 32.2285 64.7304 32.5235 64.166 33.0535L45.2927 51.8846L48.4177 55.0518L68.3754 37.5519C68.6797 37.2602 68.9212 36.9093 69.0848 36.5207C69.2484 36.1322 69.3308 35.7143 69.3268 35.2928C69.3229 34.8712 69.2327 34.4549 69.0618 34.0696C68.8909 33.6842 68.643 33.3378 68.3332 33.0519V33.0535Z" fill="white"/>
<path id="Vector_13" d="M48.2505 55.8033C48.0638 55.7987 47.8855 55.7246 47.7506 55.5954L44.5834 52.4283C44.4483 52.2885 44.3728 52.1016 44.3728 51.9072C44.3728 51.7128 44.4483 51.5259 44.5834 51.3861L63.4582 32.5941C64.0019 32.0511 64.6961 31.6839 65.451 31.5403C66.2058 31.3966 66.9864 31.483 67.6915 31.7884C68.3966 32.0937 68.9937 32.6038 69.4054 33.2526C69.8171 33.9014 70.0244 34.6589 70.0004 35.4269C69.9787 35.9482 69.8533 36.4599 69.6314 36.9321C69.4095 37.4043 69.0957 37.8275 68.7082 38.1768L48.7505 55.6767C48.6054 55.7794 48.427 55.824 48.2505 55.8017V55.8033ZM46.0428 51.8845L48.1255 54.0095L67.7082 36.9675C68.1926 36.5456 68.4816 35.9425 68.5004 35.3003C68.5191 34.6581 68.266 34.03 67.7926 33.5925C67.3554 33.1571 66.7635 32.9127 66.1465 32.9127C65.5295 32.9127 64.9376 33.1571 64.5004 33.5925L46.0428 51.8845Z" fill="#00084D"/>
<path id="Vector_14" d="M30.6679 73.344C30.6146 73.4165 30.5859 73.5041 30.5859 73.594C30.5859 73.684 30.6146 73.7715 30.6679 73.844L31.5007 77.469C31.5341 77.6823 31.5025 77.9007 31.4099 78.0958C31.3174 78.2909 31.1683 78.4536 30.982 78.5627C30.7963 78.6713 30.581 78.7182 30.3671 78.6965C30.1531 78.6749 29.9515 78.5859 29.7914 78.4424L24.0836 72.9424L41.8756 55.0098H48.0427L52.2099 59.1769C45.7095 64.8603 38.4615 69.627 30.6679 73.344Z" fill="white"/>
<path id="Vector_15" d="M30.2929 79.4687C29.821 79.4594 29.3554 79.2656 29.0429 78.9266L23.5851 73.4688C23.507 73.4063 23.4438 73.327 23.4005 73.2368C23.3571 73.1466 23.3346 73.0478 23.3346 72.9477C23.3346 72.8476 23.3571 72.7488 23.4005 72.6586C23.4438 72.5684 23.507 72.4891 23.5851 72.4266L41.5006 54.469C41.6009 54.3623 41.732 54.2897 41.8756 54.2612H48.0833C48.2451 54.204 48.4216 54.204 48.5833 54.2612L52.7505 58.4283C52.8297 58.5014 52.89 58.5926 52.9262 58.6941C52.9624 58.7956 52.9734 58.9044 52.9583 59.0111C52.9612 59.1146 52.9402 59.2174 52.8968 59.3115C52.8535 59.4056 52.7889 59.4883 52.7083 59.5533L52.3755 59.8455C45.8489 65.2866 38.6684 69.8914 31.0007 73.5532L31.7929 76.9281C31.8541 77.1885 31.8564 77.4592 31.7997 77.7206C31.743 77.982 31.6287 78.2274 31.465 78.439C31.3014 78.6505 31.0926 78.8229 30.8538 78.9434C30.6151 79.064 30.3525 79.1298 30.0851 79.1359L30.2929 79.4687ZM25.2101 72.9266L30.1257 77.8844C30.1715 77.9252 30.2307 77.9478 30.2921 77.9478C30.3535 77.9478 30.4127 77.9252 30.4585 77.8844C30.4891 77.8418 30.5056 77.7907 30.5056 77.7383C30.5056 77.6859 30.4891 77.6347 30.4585 77.5922L29.6257 73.9672C29.5601 73.7071 29.5864 73.4322 29.7004 73.1893C29.8143 72.9464 30.0087 72.7503 30.2507 72.6344C37.7122 69.0215 44.7076 64.5162 51.0833 59.2174L47.6662 55.8002H42.0834L25.2101 72.9266Z" fill="#00084D"/>
<path id="Vector_16" d="M19.793 77.2189L23.9601 73.0518L30.3773 79.4689L20.1696 78.7611C19.9943 78.7473 19.8279 78.6786 19.694 78.5646C19.5601 78.4507 19.4656 78.2974 19.4241 78.1266C19.3825 77.9558 19.3959 77.7762 19.4625 77.6135C19.529 77.4507 19.6452 77.3132 19.7946 77.2204L19.793 77.2189Z" fill="white"/>
<path id="Vector_17" d="M30.5007 80.0936L20.3336 79.3858C19.7305 79.3295 19.2117 78.917 18.9992 78.3655C18.7867 77.8139 18.9164 77.1592 19.3336 76.7186L23.5007 72.5514C23.6406 72.4163 23.8274 72.3408 24.0218 72.3408C24.2163 72.3408 24.4031 72.4163 24.5429 72.5514L30.9178 78.9264C31.0061 79.0473 31.0537 79.1931 31.0537 79.3428C31.0537 79.4925 31.0061 79.6383 30.9178 79.7592C30.8215 79.915 30.674 80.0327 30.5007 80.092V80.0936ZM20.3336 77.7608L28.6663 78.303L24.0835 74.0108L20.3336 77.7608Z" fill="#00084D"/>
<path id="Vector_18" d="M48.6254 55.5127L40.2084 56.8049L45.0833 51.9722L48.6254 55.5127Z" fill="white"/>
<path id="Vector_19" d="M40.2084 57.5939C40.0685 57.5975 39.9306 57.5599 39.812 57.4857C39.6934 57.4115 39.5992 57.3041 39.5412 57.1767C39.4525 57.056 39.4047 56.9101 39.4047 56.7603C39.4047 56.6105 39.4525 56.4646 39.5412 56.3439L44.3739 51.4689C44.5205 51.3311 44.7142 51.2544 44.9153 51.2544C45.1165 51.2544 45.3101 51.3311 45.4567 51.4689L49.0004 55.0095C49.0712 55.1218 49.1088 55.2518 49.1088 55.3845C49.1088 55.5172 49.0712 55.6472 49.0004 55.7595C48.9657 55.8963 48.8922 56.0202 48.7888 56.1164C48.6855 56.2126 48.5566 56.2769 48.4176 56.3017L40.085 57.5939H40.2084ZM45.0833 53.0517L42.3755 55.7595L47.0426 55.0517L45.0833 53.0517Z" fill="#00084D"/>
<path id="Vector_20" d="M48.6255 55.5095L42.7506 56.2595C42.5934 56.2952 42.4288 56.2793 42.2814 56.2141C42.1339 56.1489 42.0114 56.0379 41.932 55.8977C41.8525 55.7574 41.8204 55.5952 41.8404 55.4352C41.8603 55.2752 41.9313 55.126 42.0428 55.0095L45.0849 51.9673L48.6255 55.5095Z" fill="white"/>
<path id="Vector_21" d="M42.5834 57.0532C42.3111 57.0505 42.0443 56.9759 41.8102 56.8367C41.5761 56.6976 41.383 56.4989 41.2506 56.261C41.0915 55.9758 41.0298 55.6464 41.0749 55.3229C41.1201 54.9995 41.2695 54.6996 41.5006 54.4688L44.5428 51.4266C44.6894 51.2889 44.883 51.2122 45.0842 51.2122C45.2854 51.2122 45.479 51.2889 45.6256 51.4266L49.1677 54.9688C49.2731 55.0686 49.3472 55.1968 49.3811 55.3379C49.415 55.479 49.4073 55.6269 49.3588 55.7637C49.3104 55.9005 49.2233 56.0203 49.1081 56.1085C48.9929 56.1968 48.8546 56.2497 48.7099 56.261L42.8772 57.011L42.5834 57.0532ZM42.5834 55.511L47.0006 54.9688L45.0428 53.011L42.5428 55.511H42.5834ZM78.8331 25.3862C78.7546 25.2547 78.6306 25.1566 78.4845 25.1105C78.3385 25.0644 78.1807 25.0736 78.0409 25.1362C77.9719 25.1711 77.9107 25.2196 77.8608 25.2786C77.8109 25.3376 77.7733 25.4061 77.7503 25.4799C77.7039 25.6289 77.7185 25.7902 77.7909 25.9284C78.0831 26.5424 78.0018 27.269 77.5831 27.8033C77.5311 27.8548 77.4903 27.9165 77.4635 27.9846C77.4366 28.0526 77.4241 28.1255 77.4269 28.1987C77.4284 28.3452 77.484 28.486 77.5831 28.594C77.69 28.6362 77.809 28.6362 77.9159 28.594C78.0129 28.6184 78.1148 28.6157 78.2104 28.5862C78.306 28.5567 78.3917 28.5016 78.4581 28.4268C78.8012 28.0067 79.0185 27.4981 79.0848 26.9598C79.1512 26.4215 79.0639 25.8754 78.8331 25.3846V25.3862Z" fill="#00084D"/>
</g>
</svg>
