<svg width="101" height="76" viewBox="0 0 101 76" fill="none" xmlns="http://www.w3.org/2000/svg">
<g id="sass">
<path id="Vector" d="M86.7026 43.431C83.2139 43.4492 80.1818 44.2894 77.6429 45.5315C76.7114 43.6867 75.7799 42.0428 75.6155 40.8373C75.4328 39.4308 75.2136 38.5724 75.4328 36.8919C75.652 35.2115 76.6383 32.8188 76.6201 32.6361C76.6018 32.4535 76.4009 31.595 74.3917 31.5767C72.3825 31.5585 70.6473 31.9603 70.4464 32.49C70.2454 33.0197 69.8619 34.2252 69.6061 35.4672C69.2591 37.2938 65.5878 43.8145 63.4872 47.2302C62.8114 45.8968 62.2269 44.7278 62.0991 43.7963C61.9164 42.3898 61.6972 41.5314 61.9164 39.8509C62.1356 38.1705 63.1219 35.7778 63.1037 35.5951C63.0854 35.4125 62.8845 34.554 60.8753 34.5357C58.8661 34.5174 57.1309 34.9193 56.93 35.449C56.729 35.9787 56.5099 37.2207 56.0898 38.4262C55.6697 39.6318 50.7928 50.5179 49.5142 53.3308C48.8567 54.7738 48.2904 55.9245 47.8886 56.7099C47.8886 56.7099 47.8703 56.7647 47.8155 56.856C47.4685 57.5318 47.2676 57.8971 47.2676 57.8971C47.2676 57.8971 47.2676 57.8971 47.2676 57.9154C46.9936 58.4086 46.7014 58.8652 46.5552 58.8652C46.4456 58.8652 46.2447 57.5501 46.5918 55.7601C47.3224 51.9792 49.0576 46.0977 49.0393 45.8968C49.0393 45.7872 49.3681 44.7643 47.9069 44.2346C46.4822 43.7049 45.9707 44.5817 45.8429 44.5817C45.715 44.5817 45.6237 44.8922 45.6237 44.8922C45.6237 44.8922 47.2128 38.2801 42.5916 38.2801C39.7057 38.2801 35.7239 41.44 33.7512 44.2894C32.5091 44.9652 29.8607 46.4082 27.0295 47.9608C25.9519 48.5635 24.8377 49.1663 23.7966 49.7325C23.7235 49.6595 23.6504 49.5681 23.5774 49.4951C17.9882 43.5223 7.64996 39.303 8.08832 31.2845C8.25271 28.362 9.25731 20.6905 27.9428 11.3752C43.3223 3.79507 55.5601 5.89559 57.6789 10.5533C60.7109 17.2019 51.1216 29.5493 35.2307 31.3393C29.1666 32.0151 25.9884 29.6771 25.1847 28.8004C24.3445 27.8871 24.2167 27.8323 23.9062 28.015C23.3947 28.289 23.7235 29.1109 23.9062 29.5858C24.3811 30.8278 26.3354 33.0197 29.6415 34.0973C32.5639 35.0471 39.6692 35.5768 48.2722 32.2525C57.898 28.5264 65.4234 18.1699 63.2133 9.49387C61.0031 0.689949 46.3908 -2.21425 32.5639 2.69914C24.3445 5.6216 15.431 10.2245 9.01986 16.2155C1.40319 23.339 0.197677 29.531 0.690843 32.1247C2.46259 41.3304 15.157 47.3215 20.2348 51.76C19.9791 51.9061 19.7416 52.034 19.5407 52.1435C17.0018 53.4039 7.32118 58.4634 4.91015 63.8151C2.17034 69.8792 5.34852 74.2264 7.44904 74.8109C13.9698 76.6192 20.6732 73.3679 24.2715 67.9979C27.8697 62.6279 27.4314 55.6505 25.7692 52.4541C25.751 52.4175 25.7327 52.381 25.6962 52.3445C26.3537 51.9609 27.0295 51.559 27.6871 51.1755C28.9839 50.4083 30.2625 49.696 31.3584 49.1115C30.7374 50.8102 30.2808 52.8376 30.0616 55.7601C29.7876 59.194 31.194 63.6507 33.0388 65.4042C33.8608 66.1714 34.8288 66.1896 35.4499 66.1896C37.6052 66.1896 38.5733 64.3996 39.6509 62.2808C40.966 59.6872 42.1533 56.6734 42.1533 56.6734C42.1533 56.6734 40.6738 64.8197 44.6922 64.8197C46.1534 64.8197 47.6329 62.9201 48.2904 61.9521C48.2904 61.9703 48.2904 61.9703 48.2904 61.9703C48.2904 61.9703 48.327 61.9155 48.4 61.7877C48.5462 61.5502 48.6375 61.4041 48.6375 61.4041C48.6375 61.4041 48.6375 61.3858 48.6375 61.3676C49.222 60.3447 50.5371 58.025 52.4915 54.171C55.0121 49.2028 57.4414 42.9926 57.4414 42.9926C57.4414 42.9926 57.6606 44.5086 58.4095 47.0292C58.8478 48.5087 59.7611 50.1343 60.4917 51.7052C59.9072 52.5271 59.5419 52.9837 59.5419 52.9837C59.5419 52.9837 59.5419 52.9838 59.5602 53.002C59.0853 53.623 58.5739 54.2989 58.0076 54.9564C56.0167 57.3309 53.6422 60.0525 53.3134 60.8379C52.9299 61.7694 53.0212 62.4452 53.7518 62.9932C54.2815 63.395 55.2313 63.4498 56.1994 63.395C57.9894 63.2672 59.2497 62.8288 59.8707 62.5548C60.8388 62.2078 61.9712 61.6781 63.0306 60.8927C64.985 59.4497 66.1722 57.3857 66.0627 54.6642C66.0079 53.1664 65.5147 51.6686 64.9119 50.2622C65.0946 50.0065 65.259 49.7508 65.4416 49.4951C68.5285 44.9835 70.9213 40.0336 70.9213 40.0336C70.9213 40.0336 71.1404 41.5496 71.8893 44.0702C72.2546 45.3488 73.0035 46.737 73.6611 48.0886C70.7569 50.4449 68.9669 53.1847 68.3276 54.9747C67.1768 58.299 68.0719 59.7967 69.7705 60.1438C70.5377 60.3082 71.6336 59.9429 72.4373 59.5958C73.4601 59.267 74.6657 58.7008 75.8164 57.8606C77.7708 56.4176 79.6521 54.4085 79.5425 51.6869C79.4877 50.4449 79.159 49.2211 78.7023 48.0338C81.1681 47.011 84.3463 46.4447 88.4012 46.9196C97.0956 47.9425 98.8125 53.3673 98.4837 55.6505C98.155 57.9337 96.3284 59.1757 95.7257 59.5593C95.1229 59.9429 94.922 60.0707 94.9768 60.3447C95.0498 60.7465 95.3421 60.7283 95.8535 60.6552C96.5659 60.5274 100.42 58.8104 100.584 54.6094C100.858 49.2393 95.7439 43.3762 86.7026 43.431ZM19.632 66.0435C16.7461 69.1852 12.7277 70.3724 10.9925 69.3678C9.12945 68.2901 9.86007 63.6507 13.4036 60.3264C15.5589 58.299 18.3352 56.4176 20.18 55.2669C20.6001 55.0112 21.2211 54.6459 21.97 54.1893C22.0979 54.1162 22.1709 54.0797 22.1709 54.0797C22.3171 53.9883 22.4632 53.897 22.6093 53.8057C23.9062 58.5547 22.6641 62.7375 19.632 66.0435ZM40.6372 51.76C39.6326 54.2075 37.5321 60.4726 36.2536 60.1255C35.1576 59.8333 34.4818 55.0843 36.0344 50.3901C36.8198 48.0338 38.4819 45.221 39.45 44.125C41.0208 42.3716 42.756 41.7871 43.1761 42.4994C43.7058 43.431 41.2583 50.2257 40.6372 51.76ZM57.9711 60.0525C57.551 60.2716 57.1492 60.4178 56.9665 60.3082C56.8386 60.2351 57.1492 59.9429 57.1492 59.9429C57.1492 59.9429 59.3227 57.6049 60.1812 56.5455C60.6744 55.9245 61.2589 55.1939 61.8799 54.3719C61.8799 54.445 61.8799 54.5363 61.8799 54.6094C61.8799 57.404 59.1766 59.2853 57.9711 60.0525ZM71.3414 57.0021C71.0308 56.783 71.0856 56.0523 72.1268 53.7692C72.5286 52.8742 73.4784 51.3764 75.104 49.9334C75.2867 50.5179 75.4145 51.0841 75.3963 51.6138C75.378 55.1391 72.8574 56.4542 71.3414 57.0021Z" fill="#00084D"/>
</g>
</svg>
