<svg width="101" height="61" viewBox="0 0 101 61" fill="none" xmlns="http://www.w3.org/2000/svg">
<g id="tailwindcss">
<path id="Vector" d="M50.5948 0.540039C37.261 0.540039 28.9279 7.20503 25.5942 20.5338C30.5948 13.8688 36.4282 11.3703 43.0945 13.036C46.8984 13.9863 49.6169 16.7461 52.6268 19.7997C57.5286 24.7741 63.202 30.5312 75.5954 30.5312C88.9279 30.5312 97.2623 23.8662 100.595 10.5363C95.5954 17.2013 89.762 19.7009 83.0945 18.0353C79.2918 17.085 76.5733 14.3252 73.5634 11.2715C68.6616 6.29719 62.9869 0.540039 50.5948 0.540039ZM25.5942 30.5312C12.2617 30.5312 3.92729 37.1962 0.594788 50.5262C5.59416 43.8612 11.4276 41.3615 18.0951 43.0284C21.8978 43.98 24.6163 46.7385 27.6262 49.7909C32.528 54.7653 38.2026 60.5237 50.5948 60.5237C63.9285 60.5237 72.2617 53.8587 75.5954 40.5287C70.5948 47.1937 64.7614 49.6934 58.0951 48.0265C54.2912 47.0774 51.5727 44.3164 48.5628 41.264C43.6609 36.2896 37.9876 30.5312 25.5942 30.5312Z" fill="#00084D"/>
</g>
</svg>
