<svg width="101" height="101" viewBox="0 0 101 101" fill="none" xmlns="http://www.w3.org/2000/svg">
<g id="typescript">
<path id="Vector" d="M0.594727 0.540039H100.595V100.54H0.594727V0.540039Z" fill="#00084D"/>
<path id="Vector_2" d="M48.6104 37.5713H53.4073V45.8525H40.4385V82.6963L40.0948 82.79C39.626 82.915 33.4541 82.915 32.126 82.7744L31.0635 82.6807V45.8525H18.0947V37.5713L22.2041 37.5244C24.4541 37.4932 30.2354 37.4932 35.0479 37.5244C39.8604 37.5557 45.9541 37.5713 48.6104 37.5713ZM85.2198 78.79C83.3136 80.8057 81.2667 81.9307 77.8605 82.8525C76.3761 83.2588 76.1261 83.2744 72.7823 83.2588C69.4386 83.2432 69.1729 83.2432 67.5479 82.8213C63.3448 81.7432 59.9542 79.6338 57.6417 76.6494C56.9854 75.8057 55.9073 74.0557 55.9073 73.8369C55.9073 73.7744 56.0635 73.6338 56.2667 73.54C56.4698 73.4463 56.8917 73.1807 57.2354 72.9775C57.5792 72.7744 58.2042 72.3994 58.626 72.1807C59.0479 71.9619 60.2667 71.2432 61.3292 70.6025C62.3917 69.9619 63.3604 69.4463 63.4698 69.4463C63.5792 69.4463 63.7823 69.665 63.9386 69.9307C64.8761 71.5088 67.0636 73.5244 68.6104 74.2119C69.5636 74.6182 71.6729 75.0713 72.6886 75.0713C73.6261 75.0713 75.3448 74.665 76.2667 74.2432C77.2511 73.79 77.7511 73.3369 78.3448 72.4307C78.7511 71.79 78.798 71.6182 78.7823 70.3994C78.7823 69.2744 78.7198 68.9619 78.4073 68.4463C77.5323 67.0088 76.3448 66.2588 71.5323 64.1338C66.5636 61.9307 64.3292 60.6182 62.5167 58.8525C61.1729 57.54 60.9073 57.1807 60.0635 55.54C58.9698 53.4307 58.8292 52.7432 58.8135 49.6025C58.7979 47.3994 58.8448 46.6807 59.0792 45.9307C59.4073 44.8057 60.4698 42.6338 60.9542 42.0869C61.9542 40.915 62.3136 40.5557 63.0167 39.9775C65.1417 38.2275 68.4542 37.0713 71.6261 36.9619C71.9854 36.9619 73.1729 37.0244 74.2823 37.1025C77.4698 37.3682 79.6417 38.1494 81.7355 39.8213C83.3136 41.0713 85.7042 44.0088 85.4698 44.3994C85.3136 44.6338 79.0792 48.79 78.673 48.915C78.423 48.9932 78.2511 48.8994 77.9073 48.4932C75.7823 45.9463 74.923 45.3994 72.8604 45.2744C71.3917 45.1807 70.6104 45.3525 69.6261 46.0088C68.5948 46.6963 68.0948 47.7432 68.0948 49.1963C68.1104 51.3213 68.9229 52.3213 71.9229 53.8057C73.8604 54.7588 75.5167 55.54 75.6417 55.54C75.8292 55.54 79.8448 57.54 80.8917 58.165C85.7667 61.0244 87.7511 63.9619 88.2667 69.0244C88.6417 72.8369 87.5636 76.3213 85.2198 78.79Z" fill="white"/>
</g>
</svg>
