<svg width="101" height="80" viewBox="0 0 101 80" fill="none" xmlns="http://www.w3.org/2000/svg">
<path id="Vector" fill-rule="evenodd" clip-rule="evenodd" d="M21.365 0.320312C15.6592 0.320312 11.4371 5.31445 11.6262 10.7305C11.8076 15.9338 11.5719 22.6728 9.87539 28.1686C8.17285 33.6797 5.29551 37.1721 0.594727 37.6203V42.6813C5.29551 43.1305 8.17285 46.6211 9.8752 52.133C11.5719 57.6287 11.8074 64.3678 11.626 69.5711C11.4369 74.9863 15.659 79.9813 21.3658 79.9813H79.832C85.5379 79.9813 89.7592 74.9871 89.5701 69.5711C89.3887 64.3678 89.6244 57.6287 91.3209 52.133C93.0234 46.6211 95.8938 43.1291 100.595 42.6813V37.6203C95.8939 37.1711 93.0236 33.6805 91.3209 28.1686C89.6242 22.6736 89.3887 15.9338 89.5701 10.7305C89.7592 5.31523 85.5379 0.320312 79.832 0.320312H21.3643H21.365ZM68.3914 49.3568C68.3914 56.8145 62.8287 61.3373 53.5973 61.3373H37.8828C37.4333 61.3373 37.0022 61.1587 36.6843 60.8409C36.3665 60.523 36.1879 60.0919 36.1879 59.6424V20.6594C36.1879 20.2099 36.3665 19.7787 36.6843 19.4609C37.0022 19.143 37.4333 18.9645 37.8828 18.9645H53.5078C61.2053 18.9645 66.257 23.134 66.257 29.5355C66.257 34.0287 62.8586 38.0512 58.5291 38.7559V38.9902C64.4229 39.6367 68.3914 43.7188 68.3914 49.3568ZM51.8838 24.3373H42.9236V36.9936H50.4703C56.3043 36.9936 59.5211 34.6443 59.5211 30.4453C59.5205 26.5102 56.7549 24.3373 51.8838 24.3373ZM42.9236 42.0152V55.9627H52.2135C58.2877 55.9627 61.5051 53.5254 61.5051 48.9449C61.5051 44.3645 58.1975 42.0145 51.8228 42.0145H42.9236V42.0152Z" fill="#00084D"/>
</svg>
