<svg width="89" height="101" viewBox="0 0 89 101" fill="none" xmlns="http://www.w3.org/2000/svg">
<g id="css3">
<path id="polygon2989" d="M88.7698 0.540039L80.7368 90.5296L44.6283 100.54L8.6193 90.5437L0.594849 0.540039H88.7698Z" fill="#00084D"/>
<path id="polygon2991" d="M73.8597 84.7996L80.7244 7.89941H44.6823V92.8887L73.8597 84.7996Z" fill="#00084D"/>
<path id="polygon2993" d="M18.9907 41.2803L19.9801 52.3187H44.6823V41.2803H18.9907Z" fill="#EBEBEB"/>
<path id="polygon2995" d="M44.6823 18.9375H44.6442H17.0028L18.0063 29.9762H44.6823V18.9375Z" fill="#EBEBEB"/>
<path id="polygon2997" d="M44.6823 81.4331V69.9483L44.6339 69.9612L32.3402 66.6417L31.5543 57.8379H25.5805H20.4733L22.0198 75.17L44.6315 81.4472L44.6823 81.4331Z" fill="#EBEBEB"/>
<path id="polygon3005" d="M58.2369 52.3183L56.9556 66.6345L44.6442 69.9575V81.4417L67.2739 75.1699L67.4399 73.305L70.0338 44.244L70.3032 41.2799L72.296 18.9375H44.6442V29.9762H60.1986L59.1942 41.2799H44.6442V52.3183H58.2369Z" fill="white"/>
</g>
</svg>
