<svg width="101" height="101" viewBox="0 0 101 101" fill="none" xmlns="http://www.w3.org/2000/svg">
<g id="js" clip-path="url(#clip0_82_1479)">
<rect width="100" height="100" transform="translate(0.594788 0.540039)" fill="#3C5185"/>
<path id="Vector" d="M100.595 0.540039H0.594788V100.54H100.595V0.540039Z" fill="#00084D"/>
<path id="Vector_2" d="M67.7948 78.6399C69.7948 81.9399 72.3948 84.3399 77.0948 84.3399C80.9948 84.3399 83.4948 82.4399 83.4948 79.7399C83.4948 76.5399 80.8948 75.3399 76.6948 73.5399L74.3948 72.5399C67.5948 69.6399 63.0948 66.0399 63.0948 58.3399C63.0948 51.3399 68.4948 45.9399 76.8948 45.9399C82.8948 45.9399 87.1948 48.0399 90.2948 53.4399L82.9948 58.1399C81.3948 55.2399 79.6948 54.1399 76.9948 54.1399C74.1948 54.1399 72.4948 55.8399 72.4948 58.1399C72.4948 60.9399 74.1948 62.1399 78.2948 63.8399L80.5948 64.8399C88.5948 68.2399 93.0948 71.7399 93.0948 79.6399C93.0948 88.1399 86.4948 92.7399 77.4948 92.7399C68.7948 92.7399 63.0948 88.5399 60.3948 83.1399L67.7948 78.6399ZM34.5948 79.4399C36.0948 82.0399 37.3948 84.2399 40.5948 84.2399C43.6948 84.2399 45.5948 83.0399 45.5948 78.3399V46.3399H54.9948V78.5399C54.9948 88.2399 49.2948 92.7399 40.9948 92.7399C33.4948 92.7399 29.0948 88.8399 26.8948 84.1399L34.5948 79.4399Z" fill="#FFF9F9"/>
</g>
<defs>
<clipPath id="clip0_82_1479">
<rect width="100" height="100" fill="white" transform="translate(0.594788 0.540039)"/>
</clipPath>
</defs>
</svg>
