<svg width="100" height="101" viewBox="0 0 100 101" fill="none" xmlns="http://www.w3.org/2000/svg">
<g id="reactjs">
<path id="Vector" d="M49.9015 59.3566C54.7706 59.3566 58.7177 55.4094 58.7177 50.5404C58.7177 45.6713 54.7706 41.7241 49.9015 41.7241C45.0324 41.7241 41.0853 45.6713 41.0853 50.5404C41.0853 55.4094 45.0324 59.3566 49.9015 59.3566Z" fill="#00084D"/>
<path id="Vector_2" d="M49.9015 68.6026C76.0282 68.6026 97.2081 60.5157 97.2081 50.5401C97.2081 40.5644 76.0282 32.4775 49.9015 32.4775C23.7747 32.4775 2.59485 40.5644 2.59485 50.5401C2.59485 60.5157 23.7747 68.6026 49.9015 68.6026Z" stroke="#00084D" stroke-width="5"/>
<path id="Vector_3" d="M34.2588 59.5713C47.3222 82.1977 64.9156 96.4966 73.5548 91.5088C82.1939 86.5209 78.6074 64.1352 65.5441 41.5088C52.4807 18.8824 34.8873 4.58347 26.2481 9.5713C17.609 14.5591 21.1955 36.9449 34.2588 59.5713Z" stroke="#00084D" stroke-width="5"/>
<path id="Vector_4" d="M34.2589 41.5087C21.1955 64.1352 17.609 86.5209 26.2482 91.5087C34.8873 96.4966 52.4807 82.1977 65.5441 59.5713C78.6074 36.9449 82.194 14.5591 73.5548 9.57128C64.9156 4.58345 47.3222 18.8823 34.2589 41.5087Z" stroke="#00084D" stroke-width="5"/>
</g>
</svg>
