<svg width="101" height="101" viewBox="0 0 101 101" fill="none" xmlns="http://www.w3.org/2000/svg">
<path id="Vector" d="M98.7087 45.8647L55.0478 2.20615C52.5349 -0.308301 48.4568 -0.308301 45.9408 2.20615L36.8744 11.2726L48.3755 22.7737C51.0482 21.8706 54.113 22.4765 56.2435 24.6069C58.3841 26.7511 58.9857 29.8421 58.0607 32.5233L69.1447 43.6077C71.8263 42.6839 74.9204 43.2815 77.0622 45.4269C80.0556 48.419 80.0556 53.2687 77.0622 56.2628C74.0681 59.2573 69.2185 59.2573 66.2228 56.2628C63.9712 54.0089 63.415 50.7022 64.5548 47.9284L54.2181 37.5917L54.2169 64.7937C54.9663 65.1642 55.6506 65.6536 56.2435 66.2429C59.2368 69.2351 59.2368 74.0851 56.2435 77.0815C53.2493 80.0745 48.3974 80.0745 45.4076 77.0815C42.4142 74.0851 42.4142 69.2355 45.4076 66.2433C46.1249 65.5256 46.9774 64.9572 47.9158 64.571V37.1155C46.976 36.7319 46.123 36.1632 45.4076 35.4433C43.1396 33.1784 42.5943 29.8507 43.7564 27.0659L32.4189 15.7272L2.48138 45.6628C-0.0342406 48.1796 -0.0342406 52.2581 2.48138 54.773L46.1431 98.4323C48.6568 100.947 52.7341 100.947 55.2509 98.4323L98.7083 54.9757C101.223 52.4601 101.224 48.3792 98.7087 45.8647Z" fill="#00084D"/>
</svg>
